<svg width="267" height="48" viewBox="0 0 267 48" fill="none" xmlns="http://www.w3.org/2000/svg">
<path d="M5.39283 46.551C3.72962 45.5871 2.41291 44.283 1.44901 42.6387C0.485103 40.9944 0 39.2114 0 37.2773C0 35.3432 0.478803 33.4847 1.44901 31.8215C2.41291 30.1583 3.72962 28.8416 5.39283 27.8777C7.05604 26.9138 8.87675 26.4287 10.8487 26.4287C12.8206 26.4287 14.5657 26.9138 16.21 27.8777C17.8543 28.8416 19.1584 30.1583 20.1223 31.8215C21.0862 33.4847 21.5713 35.3054 21.5713 37.2773C21.5713 39.2492 21.0862 40.9944 20.1223 42.6387C19.1584 44.283 17.8543 45.5871 16.21 46.551C14.5657 47.5149 12.7828 48 10.8487 48C8.91455 48 7.05604 47.5149 5.39283 46.551ZM14.6602 17.1613L24.5891 0L51.7422 47.0109H31.8215L14.6602 17.1613Z" fill="black"/>
<path d="M71.7386 0H54.4639V47.0109H71.7386V0Z" fill="black"/>
<path d="M54.4637 17.2747H37.189L54.4637 0V17.2747Z" fill="black"/>
<path d="M1.44901 42.6387C2.41292 44.283 3.72962 45.5871 5.39283 46.551C7.05605 47.5149 8.91456 48 10.8487 48C12.7828 48 14.5657 47.5149 16.21 46.551C17.8543 45.5871 19.1584 44.283 20.1223 42.6387C21.0862 40.9944 21.5713 39.2493 21.5713 37.2774C21.5713 35.3055 21.0862 33.4848 20.1223 31.8215C19.1584 30.1583 17.8543 28.8416 16.21 27.8777C14.5657 26.9138 12.8206 26.4287 10.8487 26.4287C8.87675 26.4287 7.05605 26.9138 5.39283 27.8777C3.72962 28.8416 2.41292 30.1583 1.44901 31.8215C0.478803 33.4848 0 35.3433 0 37.2774C0 39.2115 0.485103 40.9944 1.44901 42.6387Z" fill="black"/>
<path d="M257.605 34.3416C256.198 34.3416 254.895 34.111 253.696 33.6499C252.497 33.1887 251.46 32.543 250.583 31.7129C249.73 30.9058 249.108 29.9488 248.715 28.842L252.935 27.2509C253.212 28.1271 253.754 28.8304 254.561 29.3608C255.391 29.9142 256.406 30.191 257.605 30.191C258.527 30.191 259.334 30.018 260.026 29.6721C260.741 29.3262 261.294 28.8189 261.686 28.1502C262.078 27.5045 262.274 26.7205 262.274 25.7981V21.5091L263.139 22.5468C262.493 23.6767 261.629 24.5299 260.545 25.1063C259.461 25.6828 258.228 25.9711 256.844 25.9711C255.091 25.9711 253.523 25.5675 252.14 24.7605C250.756 23.9534 249.672 22.8465 248.888 21.4399C248.104 20.0333 247.712 18.4537 247.712 16.7012C247.712 14.9256 248.104 13.3461 248.888 11.9625C249.672 10.5789 250.745 9.49513 252.105 8.71111C253.466 7.90403 255.011 7.50049 256.74 7.50049C258.147 7.50049 259.38 7.80026 260.441 8.39981C261.525 8.97629 262.424 9.81796 263.139 10.9248L262.517 12.0663V7.91556H266.806V25.7981C266.806 27.4354 266.402 28.8996 265.595 30.191C264.811 31.4823 263.727 32.4969 262.344 33.2348C260.983 33.9727 259.404 34.3416 257.605 34.3416ZM257.397 21.7858C258.366 21.7858 259.208 21.5783 259.922 21.1632C260.66 20.7251 261.237 20.1255 261.652 19.3646C262.067 18.6036 262.274 17.7273 262.274 16.7358C262.274 15.7673 262.055 14.9026 261.617 14.1416C261.202 13.3576 260.626 12.7465 259.888 12.3084C259.173 11.8702 258.343 11.6512 257.397 11.6512C256.452 11.6512 255.599 11.8702 254.838 12.3084C254.077 12.7465 253.477 13.3576 253.039 14.1416C252.624 14.9026 252.417 15.7673 252.417 16.7358C252.417 17.7043 252.624 18.569 253.039 19.33C253.477 20.0909 254.065 20.6905 254.803 21.1286C255.564 21.5667 256.429 21.7858 257.397 21.7858Z" fill="black"/>
<path d="M227.969 26.732V7.91556H232.224V11.6166L231.878 10.9594C232.316 9.82949 233.031 8.97629 234.022 8.39981C235.037 7.80026 236.213 7.50049 237.55 7.50049C238.934 7.50049 240.156 7.80026 241.217 8.39981C242.301 8.99935 243.142 9.84102 243.742 10.9248C244.341 11.9855 244.641 13.2192 244.641 14.6258V26.732H240.11V15.6981C240.11 14.868 239.949 14.1531 239.626 13.5536C239.303 12.954 238.853 12.4929 238.277 12.17C237.723 11.8241 237.066 11.6512 236.305 11.6512C235.567 11.6512 234.91 11.8241 234.334 12.17C233.757 12.4929 233.307 12.954 232.985 13.5536C232.662 14.1531 232.5 14.868 232.5 15.6981V26.732H227.969Z" fill="black"/>
<path d="M219.255 26.7323V7.91579H223.786V26.7323H219.255ZM219.255 5.80586V0.963379H223.786V5.80586H219.255Z" fill="black"/>
<path d="M213.544 26.94C211.423 26.94 209.774 26.3635 208.598 25.2106C207.445 24.0345 206.869 22.3858 206.869 20.2643V11.9629H203.617V7.916H203.963C204.885 7.916 205.6 7.67388 206.108 7.18963C206.615 6.70539 206.869 6.00207 206.869 5.0797V3.62695H211.4V7.916H215.723V11.9629H211.4V20.0222C211.4 20.6448 211.504 21.1752 211.711 21.6133C211.942 22.0514 212.288 22.3858 212.749 22.6164C213.233 22.847 213.844 22.9623 214.582 22.9623C214.743 22.9623 214.928 22.9507 215.135 22.9277C215.366 22.9046 215.585 22.8816 215.793 22.8585V26.7325C215.47 26.7786 215.101 26.8247 214.686 26.8708C214.271 26.917 213.89 26.94 213.544 26.94Z" fill="black"/>
<path d="M196.251 26.7323V0.54834H200.783V26.7323H196.251Z" fill="black"/>
<path d="M182.458 27.1476C181.006 27.1476 179.737 26.8247 178.654 26.1791C177.593 25.5334 176.774 24.6341 176.198 23.4811C175.644 22.3281 175.368 20.9792 175.368 19.4342V7.91602H179.899V19.0537C179.899 19.8377 180.049 20.5295 180.349 21.1291C180.671 21.7055 181.121 22.1667 181.697 22.5126C182.297 22.8355 182.966 22.9969 183.704 22.9969C184.442 22.9969 185.099 22.8355 185.675 22.5126C186.252 22.1667 186.701 21.694 187.024 21.0945C187.347 20.4949 187.508 19.7801 187.508 18.9499V7.91602H192.04V26.7325H187.751V23.0315L188.131 23.6887C187.693 24.8416 186.967 25.7064 185.952 26.2828C184.96 26.8593 183.796 27.1476 182.458 27.1476Z" fill="black"/>
<path d="M165.141 27.1471C163.135 27.1471 161.382 26.6744 159.883 25.729C158.407 24.7605 157.393 23.4576 156.839 21.8204L160.229 20.1947C160.713 21.2554 161.382 22.0856 162.235 22.6851C163.112 23.2847 164.08 23.5844 165.141 23.5844C165.971 23.5844 166.628 23.4 167.112 23.031C167.597 22.6621 167.839 22.1778 167.839 21.5783C167.839 21.2093 167.735 20.9095 167.527 20.6789C167.343 20.4253 167.078 20.2178 166.732 20.0563C166.409 19.8719 166.052 19.722 165.66 19.6067L162.581 18.742C160.99 18.2808 159.779 17.5775 158.949 16.632C158.142 15.6866 157.739 14.5682 157.739 13.2769C157.739 12.1239 158.027 11.1208 158.603 10.2676C159.203 9.39136 160.022 8.71111 161.059 8.22686C162.12 7.74261 163.331 7.50049 164.691 7.50049C166.467 7.50049 168.035 7.92709 169.395 8.78029C170.756 9.63348 171.724 10.8326 172.301 12.3776L168.842 14.0032C168.519 13.15 167.977 12.4698 167.216 11.9625C166.455 11.4552 165.602 11.2015 164.656 11.2015C163.896 11.2015 163.296 11.3745 162.858 11.7204C162.42 12.0663 162.201 12.5159 162.201 13.0693C162.201 13.4152 162.293 13.715 162.477 13.9687C162.662 14.2223 162.916 14.4298 163.238 14.5913C163.584 14.7527 163.976 14.9026 164.414 15.0409L167.424 15.9402C168.969 16.4014 170.156 17.0932 170.986 18.0156C171.839 18.938 172.266 20.0679 172.266 21.4053C172.266 22.5352 171.966 23.5383 171.367 24.4146C170.767 25.2678 169.937 25.9365 168.876 26.4207C167.816 26.905 166.57 27.1471 165.141 27.1471Z" fill="black"/>
<path d="M137.477 26.732V7.91556H141.732V11.6166L141.386 10.9594C141.824 9.82949 142.539 8.97629 143.53 8.39981C144.545 7.80026 145.721 7.50049 147.058 7.50049C148.442 7.50049 149.664 7.80026 150.725 8.39981C151.808 8.99935 152.65 9.84102 153.25 10.9248C153.849 11.9855 154.149 13.2192 154.149 14.6258V26.732H149.618V15.6981C149.618 14.868 149.456 14.1531 149.134 13.5536C148.811 12.954 148.361 12.4929 147.785 12.17C147.231 11.8241 146.574 11.6512 145.813 11.6512C145.075 11.6512 144.418 11.8241 143.841 12.17C143.265 12.4929 142.815 12.954 142.492 13.5536C142.17 14.1531 142.008 14.868 142.008 15.6981V26.732H137.477Z" fill="black"/>
<path d="M124.114 27.1471C122.269 27.1471 120.586 26.7205 119.064 25.8673C117.565 25.0141 116.366 23.8496 115.467 22.3738C114.59 20.898 114.152 19.2147 114.152 17.3238C114.152 15.4329 114.59 13.7496 115.467 12.2738C116.366 10.798 117.565 9.63348 119.064 8.78029C120.563 7.92709 122.246 7.50049 124.114 7.50049C125.959 7.50049 127.631 7.92709 129.129 8.78029C130.628 9.63348 131.816 10.798 132.692 12.2738C133.591 13.7265 134.041 15.4099 134.041 17.3238C134.041 19.2147 133.591 20.898 132.692 22.3738C131.793 23.8496 130.594 25.0141 129.095 25.8673C127.596 26.7205 125.936 27.1471 124.114 27.1471ZM124.114 22.9964C125.129 22.9964 126.016 22.7543 126.777 22.27C127.561 21.7858 128.172 21.1171 128.611 20.2639C129.072 19.3876 129.302 18.4076 129.302 17.3238C129.302 16.2169 129.072 15.2485 128.611 14.4183C128.172 13.5651 127.561 12.8964 126.777 12.4121C126.016 11.9048 125.129 11.6512 124.114 11.6512C123.076 11.6512 122.165 11.9048 121.381 12.4121C120.597 12.8964 119.975 13.5651 119.514 14.4183C119.076 15.2485 118.856 16.2169 118.856 17.3238C118.856 18.4076 119.076 19.3876 119.514 20.2639C119.975 21.1171 120.597 21.7858 121.381 22.27C122.165 22.7543 123.076 22.9964 124.114 22.9964Z" fill="black"/>
<path d="M100.951 27.1474C99.1064 27.1474 97.4 26.813 95.8319 26.1443C94.287 25.4756 92.9265 24.5417 91.7504 23.3426C90.5975 22.1435 89.6981 20.7369 89.0525 19.1227C88.4068 17.5085 88.084 15.7445 88.084 13.8306C88.084 11.9166 88.3953 10.1526 89.0179 8.53842C89.6636 6.90121 90.5629 5.49458 91.7158 4.31855C92.8919 3.11946 94.2639 2.19709 95.8319 1.55142C97.4 0.882701 99.1064 0.54834 100.951 0.54834C102.796 0.54834 104.445 0.859642 105.897 1.48225C107.373 2.10485 108.618 2.93499 109.633 3.97266C110.648 4.98728 111.374 6.10566 111.812 7.32781L107.592 9.29939C107.108 8.00806 106.289 6.94733 105.136 6.11719C103.983 5.26399 102.588 4.83739 100.951 4.83739C99.337 4.83739 97.9073 5.21787 96.6621 5.97883C95.4399 6.73979 94.483 7.78899 93.7912 9.12644C93.1225 10.4639 92.7881 12.0319 92.7881 13.8306C92.7881 15.6292 93.1225 17.2088 93.7912 18.5693C94.483 19.9067 95.4399 20.9559 96.6621 21.7169C97.9073 22.4778 99.337 22.8583 100.951 22.8583C102.588 22.8583 103.983 22.4432 105.136 21.6131C106.289 20.7599 107.108 19.6877 107.592 18.3963L111.812 20.3679C111.374 21.5901 110.648 22.72 109.633 23.7576C108.618 24.7723 107.373 25.5909 105.897 26.2135C104.445 26.8361 102.796 27.1474 100.951 27.1474Z" fill="black"/>
<path d="M262.81 45.0936C262.228 45.0936 261.718 44.9463 261.28 44.6516C260.841 44.357 260.524 43.9565 260.328 43.4503L261.042 43.1103C261.215 43.4805 261.457 43.7752 261.767 43.9943C262.084 44.2134 262.432 44.323 262.81 44.323C263.172 44.323 263.478 44.2361 263.728 44.0623C263.977 43.881 264.102 43.6468 264.102 43.3597C264.102 43.1481 264.041 42.9819 263.92 42.861C263.799 42.7326 263.66 42.6343 263.501 42.5663C263.342 42.4983 263.202 42.4492 263.082 42.419L262.209 42.1697C261.65 42.011 261.246 41.7881 260.996 41.501C260.747 41.2139 260.622 40.8815 260.622 40.5037C260.622 40.1486 260.713 39.8388 260.894 39.5744C261.076 39.3099 261.321 39.106 261.631 38.9624C261.941 38.8188 262.285 38.7471 262.662 38.7471C263.176 38.7471 263.641 38.8831 264.056 39.1551C264.479 39.4195 264.778 39.7897 264.952 40.2657L264.226 40.6057C264.075 40.2657 263.856 40.0013 263.569 39.8124C263.289 39.6159 262.976 39.5177 262.628 39.5177C262.288 39.5177 262.016 39.6046 261.812 39.7784C261.608 39.9522 261.506 40.1713 261.506 40.4357C261.506 40.6397 261.559 40.8021 261.665 40.923C261.771 41.0439 261.892 41.1346 262.028 41.195C262.171 41.2555 262.296 41.3008 262.402 41.331L263.41 41.6257C263.901 41.7692 264.283 41.9921 264.555 42.2943C264.834 42.5966 264.974 42.9517 264.974 43.3597C264.974 43.6921 264.88 43.9905 264.691 44.255C264.51 44.5194 264.256 44.7272 263.932 44.8783C263.607 45.0219 263.233 45.0936 262.81 45.0936Z" fill="#777777"/>
<path d="M254.55 45.0936C253.968 45.0936 253.458 44.9463 253.02 44.6516C252.582 44.357 252.264 43.9565 252.068 43.4503L252.782 43.1103C252.956 43.4805 253.197 43.7752 253.507 43.9943C253.825 44.2134 254.172 44.323 254.55 44.323C254.912 44.323 255.218 44.2361 255.468 44.0623C255.717 43.881 255.842 43.6468 255.842 43.3597C255.842 43.1481 255.781 42.9819 255.66 42.861C255.54 42.7326 255.4 42.6343 255.241 42.5663C255.082 42.4983 254.943 42.4492 254.822 42.419L253.949 42.1697C253.39 42.011 252.986 41.7881 252.737 41.501C252.487 41.2139 252.363 40.8815 252.363 40.5037C252.363 40.1486 252.453 39.8388 252.635 39.5744C252.816 39.3099 253.061 39.106 253.371 38.9624C253.681 38.8188 254.025 38.7471 254.403 38.7471C254.916 38.7471 255.381 38.8831 255.796 39.1551C256.22 39.4195 256.518 39.7897 256.692 40.2657L255.966 40.6057C255.815 40.2657 255.596 40.0013 255.309 39.8124C255.03 39.6159 254.716 39.5177 254.369 39.5177C254.029 39.5177 253.757 39.6046 253.553 39.7784C253.349 39.9522 253.247 40.1713 253.247 40.4357C253.247 40.6397 253.299 40.8021 253.405 40.923C253.511 41.0439 253.632 41.1346 253.768 41.195C253.911 41.2555 254.036 41.3008 254.142 41.331L255.15 41.6257C255.642 41.7692 256.023 41.9921 256.295 42.2943C256.575 42.5966 256.714 42.9517 256.714 43.3597C256.714 43.6921 256.62 43.9905 256.431 44.255C256.25 44.5194 255.997 44.7272 255.672 44.8783C255.347 45.0219 254.973 45.0936 254.55 45.0936Z" fill="#777777"/>
<path d="M245.742 45.0936C245.175 45.0936 244.661 44.9576 244.2 44.6856C243.747 44.4061 243.388 44.0245 243.124 43.541C242.859 43.0574 242.727 42.5097 242.727 41.8977C242.727 41.2857 242.855 40.7455 243.112 40.277C243.369 39.8011 243.717 39.4271 244.155 39.1551C244.601 38.8831 245.099 38.7471 245.651 38.7471C246.089 38.7471 246.478 38.8302 246.818 38.9964C247.166 39.1551 247.461 39.3742 247.702 39.6537C247.944 39.9257 248.129 40.2355 248.258 40.583C248.386 40.923 248.45 41.2744 248.45 41.637C248.45 41.7126 248.447 41.7995 248.439 41.8977C248.431 41.9883 248.42 42.0828 248.405 42.181H243.271V41.3877H247.918L247.51 41.7277C247.578 41.3121 247.529 40.9419 247.362 40.617C247.204 40.2846 246.973 40.0239 246.671 39.8351C246.369 39.6386 246.029 39.5404 245.651 39.5404C245.273 39.5404 244.922 39.6386 244.597 39.8351C244.28 40.0315 244.03 40.3073 243.849 40.6624C243.668 41.0099 243.596 41.4255 243.634 41.909C243.596 42.3926 243.671 42.8157 243.86 43.1783C244.057 43.5334 244.321 43.8092 244.654 44.0056C244.994 44.2021 245.356 44.3003 245.742 44.3003C246.187 44.3003 246.561 44.1945 246.864 43.983C247.166 43.7714 247.411 43.507 247.6 43.1897L248.326 43.575C248.205 43.847 248.02 44.1001 247.77 44.3343C247.521 44.561 247.223 44.7461 246.875 44.8896C246.535 45.0256 246.157 45.0936 245.742 45.0936Z" fill="#777777"/>
<path d="M233.986 44.9576V38.8831H234.836V40.0617L234.644 40.0164C234.795 39.6235 235.04 39.3137 235.38 39.0871C235.728 38.8604 236.128 38.7471 236.582 38.7471C237.012 38.7471 237.398 38.8453 237.738 39.0417C238.085 39.2382 238.357 39.5102 238.554 39.8577C238.758 40.1977 238.86 40.583 238.86 41.0137V44.9576H238.01V41.3424C238.01 40.9721 237.942 40.6586 237.806 40.4017C237.677 40.1448 237.492 39.9484 237.25 39.8124C237.016 39.6688 236.744 39.5971 236.434 39.5971C236.125 39.5971 235.849 39.6688 235.607 39.8124C235.365 39.9484 235.176 40.1486 235.04 40.413C234.904 40.6699 234.836 40.9797 234.836 41.3424V44.9576H233.986Z" fill="#777777"/>
<path d="M228.903 44.9578V38.8833H229.753V44.9578H228.903ZM228.903 37.7613V36.5146H229.753V37.7613H228.903Z" fill="#777777"/>
<path d="M222.751 45.0936C222.17 45.0936 221.66 44.9463 221.222 44.6516C220.783 44.357 220.466 43.9565 220.27 43.4503L220.984 43.1103C221.157 43.4805 221.399 43.7752 221.709 43.9943C222.026 44.2134 222.374 44.323 222.751 44.323C223.114 44.323 223.42 44.2361 223.669 44.0623C223.919 43.881 224.043 43.6468 224.043 43.3597C224.043 43.1481 223.983 42.9819 223.862 42.861C223.741 42.7326 223.601 42.6343 223.443 42.5663C223.284 42.4983 223.144 42.4492 223.023 42.419L222.151 42.1697C221.592 42.011 221.188 41.7881 220.938 41.501C220.689 41.2139 220.564 40.8815 220.564 40.5037C220.564 40.1486 220.655 39.8388 220.836 39.5744C221.018 39.3099 221.263 39.106 221.573 38.9624C221.883 38.8188 222.226 38.7471 222.604 38.7471C223.118 38.7471 223.583 38.8831 223.998 39.1551C224.421 39.4195 224.72 39.7897 224.893 40.2657L224.168 40.6057C224.017 40.2657 223.798 40.0013 223.511 39.8124C223.231 39.6159 222.918 39.5177 222.57 39.5177C222.23 39.5177 221.958 39.6046 221.754 39.7784C221.55 39.9522 221.448 40.1713 221.448 40.4357C221.448 40.6397 221.501 40.8021 221.607 40.923C221.713 41.0439 221.834 41.1346 221.97 41.195C222.113 41.2555 222.238 41.3008 222.344 41.331L223.352 41.6257C223.843 41.7692 224.225 41.9921 224.497 42.2943C224.776 42.5966 224.916 42.9517 224.916 43.3597C224.916 43.6921 224.822 43.9905 224.633 44.255C224.451 44.5194 224.198 44.7272 223.873 44.8783C223.549 45.0219 223.175 45.0936 222.751 45.0936Z" fill="#777777"/>
<path d="M213.807 45.0939C213.384 45.0939 212.999 44.9956 212.651 44.7992C212.304 44.5952 212.028 44.3156 211.824 43.9605C211.628 43.5979 211.529 43.1823 211.529 42.7139V38.8833H212.379V42.6119C212.379 42.9368 212.444 43.2239 212.572 43.4732C212.708 43.715 212.893 43.9039 213.127 44.0399C213.369 44.1759 213.645 44.2439 213.955 44.2439C214.264 44.2439 214.54 44.1759 214.782 44.0399C215.024 43.8963 215.213 43.6961 215.349 43.4392C215.485 43.1748 215.553 42.8612 215.553 42.4986V38.8833H216.403V44.9579H215.553V43.7792L215.745 43.8245C215.602 44.2174 215.356 44.5272 215.009 44.7539C214.661 44.9805 214.261 45.0939 213.807 45.0939Z" fill="#777777"/>
<path d="M204.673 45.0936C204.152 45.0936 203.679 44.9765 203.256 44.7423C202.841 44.5005 202.527 44.1605 202.316 43.7223L202.452 43.5976V44.9576H201.602V36.3784H202.452V40.243L202.316 40.005C202.557 39.6197 202.878 39.3137 203.279 39.087C203.687 38.8604 204.152 38.747 204.673 38.747C205.247 38.747 205.757 38.8868 206.203 39.1664C206.656 39.4384 207.011 39.8124 207.268 40.2883C207.533 40.7643 207.665 41.3083 207.665 41.9203C207.665 42.5248 207.533 43.0687 207.268 43.5523C207.011 44.0283 206.656 44.4061 206.203 44.6856C205.757 44.9576 205.247 45.0936 204.673 45.0936ZM204.628 44.2436C205.036 44.2436 205.398 44.1416 205.715 43.9376C206.04 43.7336 206.293 43.4579 206.475 43.1103C206.664 42.7552 206.758 42.3585 206.758 41.9203C206.758 41.4746 206.664 41.0779 206.475 40.7303C206.293 40.3828 206.04 40.107 205.715 39.903C205.398 39.699 205.036 39.597 204.628 39.597C204.22 39.597 203.849 39.699 203.517 39.903C203.192 40.107 202.931 40.3866 202.735 40.7417C202.546 41.0892 202.452 41.4821 202.452 41.9203C202.452 42.3585 202.546 42.7552 202.735 43.1103C202.931 43.4579 203.192 43.7336 203.517 43.9376C203.849 44.1416 204.22 44.2436 204.628 44.2436Z" fill="#777777"/>
<path d="M190.86 44.9576V38.883H191.71V39.8804L191.597 39.733C191.74 39.4459 191.955 39.2193 192.243 39.053C192.537 38.8868 192.892 38.8037 193.308 38.8037H193.693V39.6537H193.16C192.722 39.6537 192.371 39.7897 192.107 40.0617C191.842 40.3337 191.71 40.719 191.71 41.2177V44.9576H190.86Z" fill="#777777"/>
<path d="M184.023 45.0939C183.6 45.0939 183.215 44.9956 182.867 44.7992C182.52 44.5952 182.244 44.3156 182.04 43.9605C181.843 43.5979 181.745 43.1823 181.745 42.7139V38.8833H182.595V42.6119C182.595 42.9368 182.659 43.2239 182.788 43.4732C182.924 43.715 183.109 43.9039 183.343 44.0399C183.585 44.1759 183.861 44.2439 184.17 44.2439C184.48 44.2439 184.756 44.1759 184.998 44.0399C185.24 43.8963 185.428 43.6961 185.564 43.4392C185.7 43.1748 185.768 42.8612 185.768 42.4986V38.8833H186.618V44.9579H185.768V43.7792L185.961 43.8245C185.817 44.2174 185.572 44.5272 185.224 44.7539C184.877 44.9805 184.476 45.0939 184.023 45.0939Z" fill="#777777"/>
<path d="M174.795 45.0936C174.22 45.0936 173.699 44.9576 173.231 44.6856C172.762 44.4061 172.388 44.0283 172.109 43.5523C171.837 43.0688 171.701 42.521 171.701 41.909C171.701 41.3046 171.837 40.7644 172.109 40.2884C172.381 39.8124 172.747 39.4384 173.208 39.1664C173.676 38.8868 174.205 38.7471 174.795 38.7471C175.384 38.7471 175.909 38.8831 176.37 39.1551C176.838 39.4271 177.205 39.8011 177.469 40.277C177.741 40.753 177.877 41.297 177.877 41.909C177.877 42.5286 177.737 43.0801 177.458 43.5637C177.178 44.0396 176.804 44.4136 176.336 44.6856C175.875 44.9576 175.361 45.0936 174.795 45.0936ZM174.795 44.2436C175.203 44.2436 175.569 44.1416 175.894 43.9376C176.226 43.7337 176.487 43.4541 176.676 43.099C176.872 42.7439 176.971 42.3472 176.971 41.909C176.971 41.4708 176.872 41.0779 176.676 40.7304C176.487 40.3828 176.226 40.107 175.894 39.9031C175.569 39.6991 175.203 39.5971 174.795 39.5971C174.387 39.5971 174.016 39.6991 173.684 39.9031C173.359 40.107 173.098 40.3828 172.902 40.7304C172.706 41.0779 172.607 41.4708 172.607 41.909C172.607 42.3472 172.706 42.7439 172.902 43.099C173.098 43.4541 173.359 43.7337 173.684 43.9376C174.016 44.1416 174.387 44.2436 174.795 44.2436Z" fill="#777777"/>
<path d="M163.616 47.4512C163.495 47.4512 163.371 47.4398 163.242 47.4172C163.121 47.402 163.001 47.3718 162.88 47.3265V46.5332C162.955 46.5407 163.05 46.5521 163.163 46.5672C163.284 46.5898 163.405 46.6012 163.526 46.6012C163.896 46.6012 164.179 46.5218 164.376 46.3632C164.572 46.2121 164.765 45.9174 164.954 45.4792L165.339 44.5725L165.316 45.3205L162.744 38.8833H163.662L165.77 44.1985H165.532L167.628 38.8833H168.569L165.792 45.7285C165.671 46.0232 165.516 46.3027 165.328 46.5672C165.146 46.8316 164.916 47.0432 164.636 47.2018C164.357 47.368 164.017 47.4512 163.616 47.4512Z" fill="#777777"/>
<path d="M152.75 44.9576V38.883H153.6V39.8804L153.487 39.733C153.63 39.4459 153.846 39.2193 154.133 39.053C154.427 38.8868 154.782 38.8037 155.198 38.8037H155.583V39.6537H155.051C154.612 39.6537 154.261 39.7897 153.997 40.0617C153.732 40.3337 153.6 40.719 153.6 41.2177V44.9576H152.75Z" fill="#777777"/>
<path d="M146.049 45.0936C145.483 45.0936 144.969 44.9576 144.508 44.6856C144.055 44.4061 143.696 44.0245 143.431 43.541C143.167 43.0574 143.035 42.5097 143.035 41.8977C143.035 41.2857 143.163 40.7455 143.42 40.277C143.677 39.8011 144.024 39.4271 144.463 39.1551C144.908 38.8831 145.407 38.7471 145.959 38.7471C146.397 38.7471 146.786 38.8302 147.126 38.9964C147.473 39.1551 147.768 39.3742 148.01 39.6537C148.252 39.9257 148.437 40.2355 148.565 40.583C148.694 40.923 148.758 41.2744 148.758 41.637C148.758 41.7126 148.754 41.7995 148.747 41.8977C148.739 41.9883 148.728 42.0828 148.713 42.181H143.579V41.3877H148.225L147.817 41.7277C147.885 41.3121 147.836 40.9419 147.67 40.617C147.511 40.2846 147.281 40.0239 146.979 39.8351C146.676 39.6386 146.336 39.5404 145.959 39.5404C145.581 39.5404 145.23 39.6386 144.905 39.8351C144.587 40.0315 144.338 40.3073 144.157 40.6624C143.975 41.0099 143.904 41.4255 143.941 41.909C143.904 42.3926 143.979 42.8157 144.168 43.1783C144.364 43.5334 144.629 43.8092 144.961 44.0056C145.301 44.2021 145.664 44.3003 146.049 44.3003C146.495 44.3003 146.869 44.1945 147.171 43.983C147.473 43.7714 147.719 43.507 147.908 43.1897L148.633 43.575C148.512 43.847 148.327 44.1001 148.078 44.3343C147.829 44.561 147.53 44.7461 147.183 44.8896C146.843 45.0256 146.465 45.0936 146.049 45.0936Z" fill="#777777"/>
<path d="M133.207 44.9579L131.122 38.8833H132.085L133.808 44.1985H133.468L135.089 38.8833H135.939L137.559 44.1985H137.219L138.953 38.8833H139.905L137.82 44.9579H136.97L135.395 39.756H135.633L134.057 44.9579H133.207Z" fill="#777777"/>
<path d="M124.906 45.0936C124.332 45.0936 123.81 44.9576 123.342 44.6856C122.874 44.4061 122.5 44.0283 122.22 43.5523C121.948 43.0688 121.812 42.521 121.812 41.909C121.812 41.3046 121.948 40.7644 122.22 40.2884C122.492 39.8124 122.858 39.4384 123.319 39.1664C123.788 38.8868 124.317 38.7471 124.906 38.7471C125.495 38.7471 126.02 38.8831 126.481 39.1551C126.95 39.4271 127.316 39.8011 127.581 40.277C127.853 40.753 127.989 41.297 127.989 41.909C127.989 42.5286 127.849 43.0801 127.569 43.5637C127.29 44.0396 126.916 44.4136 126.447 44.6856C125.986 44.9576 125.473 45.0936 124.906 45.0936ZM124.906 44.2436C125.314 44.2436 125.68 44.1416 126.005 43.9376C126.338 43.7337 126.598 43.4541 126.787 43.099C126.984 42.7439 127.082 42.3472 127.082 41.909C127.082 41.4708 126.984 41.0779 126.787 40.7304C126.598 40.3828 126.338 40.107 126.005 39.9031C125.68 39.6991 125.314 39.5971 124.906 39.5971C124.498 39.5971 124.128 39.6991 123.795 39.9031C123.47 40.107 123.21 40.3828 123.013 40.7304C122.817 41.0779 122.719 41.4708 122.719 41.909C122.719 42.3472 122.817 42.7439 123.013 43.099C123.21 43.4541 123.47 43.7337 123.795 43.9376C124.128 44.1416 124.498 44.2436 124.906 44.2436Z" fill="#777777"/>
<path d="M112.009 47.2243V38.8831H112.859V40.243L112.723 40.005C112.965 39.6197 113.286 39.3137 113.686 39.0871C114.094 38.8604 114.559 38.7471 115.08 38.7471C115.654 38.7471 116.164 38.8868 116.61 39.1664C117.063 39.4384 117.418 39.8124 117.675 40.2884C117.94 40.7644 118.072 41.3084 118.072 41.9203C118.072 42.5248 117.94 43.0688 117.675 43.5523C117.418 44.0283 117.063 44.4061 116.61 44.6856C116.164 44.9576 115.654 45.0936 115.08 45.0936C114.559 45.0936 114.087 44.9765 113.663 44.7423C113.248 44.5005 112.934 44.1605 112.723 43.7223L112.859 43.5977V47.2243H112.009ZM115.035 44.2436C115.443 44.2436 115.805 44.1416 116.123 43.9376C116.448 43.7337 116.701 43.4579 116.882 43.1103C117.071 42.7552 117.165 42.3586 117.165 41.9203C117.165 41.4746 117.071 41.0779 116.882 40.7304C116.701 40.3828 116.448 40.107 116.123 39.9031C115.805 39.6991 115.443 39.5971 115.035 39.5971C114.627 39.5971 114.257 39.6991 113.924 39.9031C113.599 40.107 113.339 40.3866 113.142 40.7417C112.953 41.0893 112.859 41.4821 112.859 41.9203C112.859 42.3586 112.953 42.7552 113.142 43.1103C113.339 43.4579 113.599 43.7337 113.924 43.9376C114.257 44.1416 114.627 44.2436 115.035 44.2436Z" fill="#777777"/>
<path d="M99.2231 44.9576V38.8831H100.073V40.039L99.9371 39.8691C100.103 39.5139 100.349 39.2382 100.674 39.0417C101.006 38.8453 101.369 38.7471 101.762 38.7471C102.23 38.7471 102.653 38.8793 103.031 39.1437C103.409 39.4082 103.677 39.7519 103.836 40.175L103.598 40.1864C103.749 39.7179 104.01 39.3628 104.38 39.1211C104.757 38.8717 105.173 38.7471 105.626 38.7471C106.034 38.7471 106.408 38.8453 106.748 39.0417C107.096 39.2382 107.372 39.5102 107.576 39.8577C107.787 40.1977 107.893 40.583 107.893 41.0137V44.9576H107.043V41.3424C107.043 40.9721 106.975 40.6586 106.839 40.4017C106.711 40.1448 106.533 39.9484 106.306 39.8124C106.08 39.6688 105.819 39.5971 105.524 39.5971C105.237 39.5971 104.977 39.6688 104.742 39.8124C104.508 39.9484 104.323 40.1486 104.187 40.413C104.051 40.6699 103.983 40.9797 103.983 41.3424V44.9576H103.133V41.3424C103.133 40.9721 103.065 40.6586 102.929 40.4017C102.801 40.1448 102.623 39.9484 102.396 39.8124C102.17 39.6688 101.909 39.5971 101.614 39.5971C101.32 39.5971 101.055 39.6688 100.821 39.8124C100.594 39.9484 100.413 40.1486 100.277 40.413C100.141 40.6699 100.073 40.9797 100.073 41.3424V44.9576H99.2231Z" fill="#777777"/>
<path d="M89.915 44.9578V36.5146H95.3549V37.3646H90.8217V40.2999H95.1283V41.1499H90.8217V44.1079H95.3549V44.9578H89.915Z" fill="#777777"/>
</svg>
